HIERARCHY
ROOT Hips
{
	OFFSET 0.000000 0.000000 0.000000 
	CHANNELS 6 Xposition Yposition Zposition Yrotation Zrotation Xrotation 
	JOINT Lumbar
	{
		OFFSET 0.000000 0.000000 0.000000 
		CHANNELS 3 Zrotation Xrotation Yrotation
		JOINT Neck
		{
			OFFSET 0.000000 0.445665 0.000000 
			CHANNELS 3 Zrotation Xrotation Yrotation
			End Site
			{
				OFFSET 0.000000 0.227535 0.000000 
			}
		}
		JOINT RightShoulder
		{
			OFFSET 0.019635 0.377685 0.194865 
			CHANNELS 3 Zrotation Xrotation Yrotation
			JOINT RightElbow
			{
				OFFSET 0.000000 -0.243375 0.000000 
				CHANNELS 2 Zrotation Yrotation
				JOINT RightWrist
				{
					OFFSET 0.000000 -0.264825 0.000000 
					CHANNELS 2 Zrotation Xrotation
					End Site
					{
						OFFSET 0.006600 -0.176220 0.000990 
					}
				}
			}
		}
		JOINT LeftShoulder
		{
			OFFSET 0.019635 0.377685 -0.194865 
			CHANNELS 3 Zrotation Xrotation Yrotation
			JOINT LeftElbow
			{
				OFFSET 0.000000 -0.243375 0.000000 
				CHANNELS 2 Zrotation Yrotation
				JOINT LeftWrist
				{
					OFFSET 0.000000 -0.264825 0.000000 
					CHANNELS 2 Zrotation Xrotation
					End Site
					{
						OFFSET 0.006600 -0.176220 -0.000990 
					}
				}
			}
		}
	}
	JOINT RightHip
	{
		OFFSET 0.052140 -0.069960 0.075570 
		CHANNELS 3 Zrotation Xrotation Yrotation
		JOINT RightKnee
		{
			OFFSET 0.000000 -0.402270 0.000000 
			CHANNELS 1 Zrotation
			JOINT RightAnkle
			{
				OFFSET 0.000000 -0.404085 0.000000 
				CHANNELS 3 Zrotation Xrotation Yrotation
				End Site
				{
					OFFSET 0.204105 -0.089430 0.008415 
				}
			}
		}
	}
	JOINT LeftHip
	{
		OFFSET 0.052140 -0.069960 -0.075570 
		CHANNELS 3 Zrotation Xrotation Yrotation
		JOINT LeftKnee
		{
			OFFSET 0.000000 -0.402270 0.000000 
			CHANNELS 1 Zrotation
			JOINT LeftAnkle
			{
				OFFSET 0.000000 -0.404085 0.000000 
				CHANNELS 3 Zrotation Xrotation Yrotation
				End Site
				{
					OFFSET 0.204105 -0.089430 -0.008415 
				}
			}
		}
	}
}
MOTION
Frames: 30
Frame Time: 0.02
0.97237 0.16071 0.35004 746.54795 -21.62532 -4.48475 42.71445 -1.81355 1.39306 -10.44358 -0.00496 -0.83079 169.88195 -157.71919 -90.01166 137.59896 76.23295 -79.69837 -22.97481 -11.63261 11.70743 -12.42456 111.79703 -96.93077 -28.67732 5.82451 36.3549 -0.10045 -6.04369 -51.0854 -7.57989 -3.60754 -2.56489 39.98542 5.31211 10.06859 -24.85451 -7.91788 4.14792 2.90645
0.97879 0.16259 0.34637 747.49905 -21.71489 -4.88625 42.7 -1.83977 0.77771 -10.17596 -0.05087 -0.83079 169.88196 -159.23335 -90.01166 137.64129 76.88737 -79.69838 -22.97498 -9.68958 11.29033 -14.24143 111.95217 -96.61396 -28.60809 5.79302 37.17211 -0.07065 -6.58434 -48.62973 -7.46553 -3.63497 -2.57717 39.45013 5.45507 9.92788 -24.49833 -7.83273 4.05859 2.85138
0.98527 0.16444 0.34296 748.52694 -21.89677 -5.28454 42.77351 -1.87072 0.14514 -9.88271 -0.11104 -0.83079 169.88196 -160.29663 -90.01166 137.61863 77.50891 -79.69839 -22.97507 -7.61631 10.68506 -16.14953 112.18338 -96.96255 -28.93104 5.82318 37.84562 -0.06148 -7.06183 -45.22829 -7.48008 -3.63341 -2.58003 39.04347 5.57435 9.59892 -24.15245 -7.76143 3.97863 2.80178
0.99172 0.16631 0.33943 749.50917 -22.04338 -5.67984 42.81962 -1.898 -0.46487 -9.60387 -0.16487 -0.83079 169.88197 -161.55539 -90.01166 137.6241 78.14285 -79.6984 -22.9752 -5.60287 10.18062 -18.02036 112.37026 -96.90041 -29.03184 5.81119 38.59139 -0.03817 -7.52172 -42.30069 -7.43179 -3.6482 -2.58877 38.58546 5.70349 9.35389 -23.80285 -7.68532 3.89674 2.75114
0.99816 0.16818 0.33593 750.54047 -22.16506 -6.09753 42.81524 -1.9297 -1.13947 -9.31301 -0.2183 -0.83079 169.88197 -162.85838 -90.01166 137.62622 78.7926 -79.69841 -22.97533 -3.5744 9.61139 -19.88842 112.59895 -97.26325 -29.29658 5.85452 39.3049 -0.02975 -8.17337 -39.14528 -7.39502 -3.65391 -2.59306 38.10091 5.8412 9.11922 -23.44806 -7.60311 3.80403 2.69386
1.00465 0.17003 0.33242 751.48514 -22.35811 -6.46614 42.93478 -1.95371 -1.68221 -9.04161 -0.27568 -0.83079 169.88198 -163.95941 -90.01167 137.62319 79.39893 -79.69841 -22.97542 -1.55584 9.13105 -21.77281 112.75957 -96.92293 -29.32602 5.79921 40.04797 0.00226 -8.41765 -36.25786 -7.36745 -3.66969 -2.60331 37.69931 5.95377 8.81712 -23.10608 -7.53704 3.73652 2.65194
1.01131 0.17185 0.32882 752.18718 -22.74123 -6.70359 43.38951 -1.95987 -1.86263 -8.82541 -0.34278 -0.83079 169.88198 -164.62543 -90.01167 137.6249 79.90253 -79.69842 -22.97545 0.46276 8.96057 -23.74629 112.69885 -94.3342 -28.54941 5.45302 40.96459 0.11106 -7.48263 -34.31672 -7.33238 -3.72391 -2.63453 37.51463 6.00063 8.37266 -22.80769 -7.5095 3.73571 2.65082
1.01802 0.17365 0.32522 752.79607 -23.19001 -6.89059 43.96323 -1.95765 -1.90829 -8.6305 -0.4129 -0.83079 169.88198 -165.10095 -90.01167 137.62445 80.36135 -79.69842 -22.97543 2.45496 8.8833 -25.7194 112.56938 -91.04377 -27.53491 5.00667 41.9063 0.24262 -6.15236 -32.68784 -7.30325 -3.78804 -2.67138 37.4053 6.02274 7.86696 -22.52002 -7.49816 3.76018 2.6651
1.0247 0.17545 0.32164 753.43738 -23.59805 -7.09792 44.47253 -1.95662 -2.01159 -8.42901 -0.48017 -0.83079 169.88198 -165.65517 -90.01167 137.62432 80.83399 -79.69841 -22.97541 4.41923 8.75103 -27.648 112.4809 -88.17262 -26.67256 4.60895 42.80068 0.35848 -5.04861 -30.93868 -7.27318 -3.84471 -2.70388 37.24835 6.05676 7.38989 -22.22084 -7.48109 3.77361 2.67261
1.03144 0.17728 0.31796 754.12383 -24.05468 -7.3163 45.02777 -1.96669 -2.13112 -8.21374 -0.55431 -0.83079 169.88198 -166.22711 -90.01167 137.62455 81.33282 -79.69842 -22.97548 6.55623 8.66377 -29.76872 112.35433 -84.90338 -25.64216 4.20003 43.84228 0.49544 -3.74516 -29.06621 -7.2401 -3.91287 -2.74359 37.15172 6.08701 6.90191 -21.95045 -7.45763 3.7855 2.67937
1.03805 0.17906 0.31448 754.69241 -24.42534 -7.49954 45.51545 -1.95166 -2.18413 -8.03234 -0.61448 -0.83079 169.88198 -166.72255 -90.01167 137.62441 81.76725 -79.69841 -22.97536 8.32609 8.50956 -31.48778 112.28932 -82.28444 -24.89464 3.79006 44.58422 0.59523 -2.76406 -27.53502 -7.21301 -3.95988 -2.76981 36.94651 6.11984 6.42587 -21.62198 -7.45114 3.80641 2.69124
1.0443 0.18072 0.31151 754.96369 -24.53445 -7.59949 45.77805 -1.86896 -2.09055 -7.94106 -0.6371 -0.83079 169.88196 -167.05697 -90.01166 137.62442 82.03206 -79.69836 -22.9747 9.0826 8.12996 -32.09804 112.41477 -81.65972 -25.03398 3.40068 44.50095 0.57729 -2.7734 -26.89554 -7.20114 -3.9455 -2.75671 36.41503 6.16298 5.98787 -21.13481 -7.48764 3.84662 2.71374
1.05042 0.18233 0.30874 755.1181 -24.55575 -7.66554 45.96967 -1.76134 -1.93396 -7.88276 -0.64529 -0.83079 169.88195 -167.32246 -90.01165 137.62439 82.23454 -79.69829 -22.97386 9.47135 7.68412 -32.30355 112.60358 -81.70376 -25.45588 3.01412 44.11448 0.5231 -3.11945 -26.58916 -7.1945 -3.9098 -2.73003 35.77245 6.21024 5.5672 -20.58786 -7.54059 3.89482 2.74074
1.0566 0.18397 0.3059 755.32215 -24.62213 -7.74625 46.19971 -1.66538 -1.80319 -7.80857 -0.65871 -0.83079 169.88193 -167.61955 -90.01164 137.62434 82.46719 -79.69823 -22.97312 10.03122 7.28108 -32.69373 112.76042 -81.42279 -25.71472 2.62598 43.86197 0.49178 -3.31049 -26.11791 -7.18469 -3.88428 -2.71002 35.18539 6.25758 5.14548 -20.06556 -7.58591 3.93901 2.7655
1.06276 0.18562 0.30297 755.53792 -24.66919 -7.82847 46.40867 -1.56772 -1.67895 -7.73966 -0.67732 -0.83079 169.88191 -167.909 -90.01163 137.62432 82.68939 -79.69817 -22.97229 10.57186 6.82724 -33.08087 112.92781 -81.21342 -26.10988 2.23347 43.62613 0.43395 -3.50002 -25.71252 -7.17831 -3.85674 -2.68796 34.58008 6.29571 4.69095 -19.55473 -7.63245 3.98593 2.79172
1.06892 0.18722 0.30027 755.70238 -24.73455 -7.90001 46.64222 -1.46777 -1.52877 -7.66637 -0.68232 -0.83079 169.88189 -168.19994 -90.01162 137.62428 82.92047 -79.69811 -22.97161 11.06751 6.46269 -33.37823 113.0898 -81.01448 -26.29365 1.85477 43.28365 0.42277 -3.77288 -25.24679 -7.16618 -3.82859 -2.66705 33.98506 6.35442 4.31188 -19.00509 -7.68013 4.02842 2.81563
1.0751 0.18871 0.29817 755.75698 -24.87357 -7.95177 46.96768 -1.36771 -1.31561 -7.58065 -0.6479 -0.83079 169.88189 -168.5181 -90.01162 137.62428 83.18065 -79.6981 -22.97139 11.5124 6.35729 -33.52538 113.2164 -80.75757 -25.80484 1.49013 42.71779 0.54603 -4.23983 -24.51885 -7.13446 -3.8005 -2.6509 33.44809 6.46801 4.11798 -18.36773 -7.72712 4.05934 2.8333
1.08127 0.19014 0.29631 755.76382 -25.03345 -7.99388 47.31836 -1.26622 -1.08064 -7.48775 -0.60146 -0.83079 169.8819 -168.83962 -90.01162 137.62429 83.45445 -79.69809 -22.97135 11.92829 6.34426 -33.59582 113.3369 -80.4793 -25.09851 1.14381 42.05574 0.71776 -4.77359 -23.72008 -7.09713 -3.77301 -2.63662 32.9246 6.60233 4.00271 -17.69243 -7.77462 4.08499 2.84822
1.08742 0.1916 0.29436 755.79089 -25.18234 -8.0398 47.65265 -1.16533 -0.86053 -7.39307 -0.56383 -0.83079 169.8819 -169.15703 -90.01162 137.62429 83.72884 -79.69809 -22.97124 12.36791 6.29081 -33.70294 113.46349 -80.16117 -24.50571 0.80539 41.4394 0.86957 -5.24683 -22.96122 -7.06397 -3.74765 -2.6227 32.39274 6.72803 3.8649 -17.03127 -7.82165 4.11108 2.86342
1.09366 0.19309 0.29235 755.8201 -25.33444 -8.08719 48.00583 -1.06375 -0.61649 -7.32122 -0.51084 -0.83079 169.8819 -169.48435 -90.01162 137.6243 83.97111 -79.69807 -22.97105 12.74853 6.22847 -33.79056 113.5772 -80.06648 -23.86015 0.39995 40.80326 1.01211 -5.85387 -22.18064 -7.02435 -3.71198 -2.60347 31.86594 6.85097 3.67426 -16.38113 -7.87009 4.14531 2.88269
1.09971 0.19449 0.29051 755.835 -25.48611 -8.12937 48.32594 -0.96361 -0.41893 -7.19922 -0.48809 -0.83079 169.8819 -169.79081 -90.01162 137.62431 84.28595 -79.69807 -22.97108 13.25194 6.20751 -33.90297 113.71678 -79.50362 -23.26984 0.13659 40.19051 1.18481 -6.20005 -21.42525 -6.99654 -3.69751 -2.59555 31.33399 6.98391 3.60919 -15.6998 -7.91574 4.16171 2.89302
1.10526 0.19568 0.28899 755.82353 -25.63028 -8.16241 48.55394 -0.8681 -0.34746 -6.94445 -0.54387 -0.83079 169.88192 -170.05217 -90.01163 137.62433 84.78455 -79.69813 -22.97181 14.08772 6.27771 -34.12809 113.9177 -77.55729 -22.87856 0.27744 39.65833 1.43892 -5.75462 -20.7449 -7.00476 -3.7473 -2.62162 30.77848 7.14491 3.89659 -14.94142 -7.95122 4.12621 2.87718
1.11061 0.19678 0.28764 755.79991 -25.77396 -8.19023 48.74712 -0.77428 -0.32537 -6.63877 -0.63196 -0.83079 169.88193 -170.28759 -90.01164 137.62436 85.3585 -79.6982 -22.97275 15.05332 6.38674 -34.37733 114.14664 -75.15526 -22.55016 0.55774 39.15597 1.72004 -5.05302 -20.09286 -7.02469 -3.81742 -2.65849 30.21899 7.31425 4.30262 -14.15309 -7.98417 4.07378 2.85289
1.11601 0.1979 0.28623 755.78114 -25.91906 -8.21871 48.95301 -0.67947 -0.28592 -6.35334 -0.71065 -0.83079 169.88195 -170.53002 -90.01165 137.62439 85.90698 -79.69827 -22.97353 15.96941 6.47872 -34.6018 114.37016 -73.02139 -22.19618 0.76327 38.6464 1.98241 -4.50303 -19.43393 -7.03786 -3.87444 -2.68834 29.66588 7.47607 4.63831 -13.37921 -8.01981 4.03148 2.83373
1.12158 0.19908 0.28474 755.76231 -26.05972 -8.25391 49.17285 -0.58508 -0.22389 -6.07896 -0.76696 -0.83079 169.88197 -170.80394 -90.01166 137.62443 86.41886 -79.69835 -22.9746 16.84092 6.57153 -34.88473 114.563 -70.62907 -21.82261 1.01692 38.10641 2.27371 -3.80685 -18.74752 -7.0568 -3.94768 -2.72707 29.09399 7.65418 5.04739 -12.60133 -8.04921 3.97814 2.8087
1.12675 0.20014 0.28347 755.74279 -26.20935 -8.27419 49.35512 -0.49082 -0.22134 -5.77071 -0.87724 -0.83079 169.88198 -170.99199 -90.01167 137.62445 87.02471 -79.69839 -22.9751 17.84066 6.67042 -35.04882 114.82598 -68.66743 -21.50699 1.20401 37.63827 2.51065 -3.35361 -18.12593 -7.0667 -3.99206 -2.74993 28.55997 7.80028 5.32915 -11.824 -8.09068 3.94455 2.79433
1.13094 0.20086 0.28276 755.7129 -26.3831 -8.25286 49.44146 -0.39167 -0.36799 -5.37201 -1.1329 -0.83079 169.88197 -171.06229 -90.01166 137.62444 87.86888 -79.69831 -22.97386 19.12718 6.77875 -34.91181 115.27988 -68.00264 -21.33958 1.16568 37.36123 2.58995 -3.63003 -17.67645 -7.04773 -3.95118 -2.72586 28.13314 7.85397 5.243 -11.06637 -8.16616 3.96741 2.80995
1.13473 0.20146 0.28227 755.6853 -26.56599 -8.21704 49.4913 -0.29362 -0.57381 -4.9431 -1.44094 -0.83079 169.88195 -171.02093 -90.01164 137.62442 88.80344 -79.69808 -22.97187 20.54429 6.89134 -34.64818 115.80262 -67.78786 -21.22735 1.05652 37.15609 2.61366 -4.15898 -17.29156 -7.01954 -3.88083 -2.68562 27.74453 7.87547 5.0215 -10.30892 -8.25206 4.01372 2.83826
1.13868 0.20212 0.2817 755.66425 -26.74508 -8.189 49.55814 -0.19814 -0.75416 -4.53381 -1.72238 -0.83079 169.88194 -170.96296 -90.01163 137.6244 89.70097 -79.6981 -22.97054 21.92618 6.99972 -34.42191 116.29122 -67.36954 -21.09032 0.98504 36.91842 2.66303 -4.57592 -16.87735 -6.99622 -3.82415 -2.65296 27.33683 7.91282 4.85372 -9.54397 -8.33539 4.04756 2.86003
1.14271 0.20278 0.28108 755.61006 -26.92251 -8.15576 49.62176 -0.08936 -0.92882 -4.09652 -2.01707 -0.83079 169.88192 -171.20911 -90.01162 137.62438 90.59245 -79.6979 -22.96867 23.2141 7.11778 -34.28355 116.79296 -66.93083 -20.95976 0.89663 36.68066 2.71119 -4.97705 -16.46385 -6.9702 -3.76634 -2.61929 26.93484 7.94506 4.72451 -8.8076 -8.41678 4.07804 2.87912
